<svg xmlns="http://www.w3.org/2000/svg" width="512" height="356.908" viewBox="0 0 512 356.908">
  <g id="china_1_" data-name="china (1)" transform="translate(-12 -27.751)">
    <path id="Path_1" data-name="Path 1" d="M12,27.751H524V384.659H12Z" transform="translate(0 0)" fill="#d60a2e"/>
    <g id="Group_2" data-name="Group 2" transform="translate(39.244 54.7)">
      <path id="Path_2" data-name="Path 2" d="M75.607,40.976,93.551,77.338l40.123,5.829-29.036,28.3,6.858,39.966-35.889-18.87-35.894,18.87L46.57,111.47l-29.036-28.3,40.123-5.829Z" transform="translate(-17.534 -2.817)" fill="#fed953"/>
      <path id="Path_3" data-name="Path 3" d="M69.409,55.152,76.582,69.68l16.034,2.329-11.6,11.313L83.75,99.287,69.409,91.75,55.069,99.287l2.737-15.966-11.6-11.313L62.241,69.68Z" transform="translate(94.952 52.796)" fill="#fed953"/>
      <path id="Path_4" data-name="Path 4" d="M59.321,42.248l13.105,9.531L87.7,46.388,82.686,61.8l9.851,12.864-16.2-.01-9.2,13.342-5-15.414L46.615,67.961l13.11-9.516Z" transform="translate(96.553 2.173)" fill="#fed953"/>
      <path id="Path_5" data-name="Path 5" d="M75.28,33.806,72.218,49.717,83.59,61.262l-16.079,2-7.463,14.38L53.175,62.975,37.19,60.317,49.02,49.245,46.6,33.225l14.188,7.828Z" transform="translate(59.578 -33.225)" fill="#fed953"/>
      <path id="Path_6" data-name="Path 6" d="M75.28,66.919,72.218,82.83,83.59,94.37l-16.079,2-7.463,14.38L53.175,96.083,37.19,93.43,49.02,82.358,46.6,66.338l14.188,7.828Z" transform="translate(59.578 96.68)" fill="#fed953"/>
    </g>
  </g>
</svg>
